# xmcd
#
# Track frame offsets: 
#        150
#        14156
#        31768
#        53509
#        70668
#        86819
#        101085
#        115351
#        132380
#        145963
#        158215
#        170499
#        190549
#        210146
#        232958
#        250020
#        267925
#
# Disc length: 3874 seconds
#
# Revision: 0
# Processed by: cddbd v1.5.1PL0 Copyright (c) Steve Scherf et al.
# Submitted via: ExactAudioCopy v0.95b2
#
DISCID=e20f2011
DTITLE=The Black Keys - The Black Keys Live
DYEAR=2005
DGENRE=Rock
TTITLE0=10 A.M. Automatic
TTITLE1=Thickfreakness
TTITLE2=Girl Is on My Mind
TTITLE3=Hard Row
TTITLE4=Busted
TTITLE5=Stack Shot Billy
TTITLE6=Set You Free
TTITLE7=The Breaks
TTITLE8=All Hands Against His Own
TTITLE9=Till I Get My Way
TTITLE10=Grown So Ugly
TTITLE11=No Trust
TTITLE12=Have Love Will Travel
TTITLE13=Everywhere I Go
TTITLE14=No Fun
TTITLE15=The Desperate Man
TTITLE16=Heavy Soul
EXTD=
EXTT0=
EXTT1=
EXTT2=
EXTT3=
EXTT4=
EXTT5=
EXTT6=
EXTT7=
EXTT8=
EXTT9=
EXTT10=
EXTT11=
EXTT12=
EXTT13=
EXTT14=
EXTT15=
EXTT16=
PLAYORDER=
